<svg xmlns="http://www.w3.org/2000/svg" viewBox="0 0 100 100">
  <!-- Dark background circle -->
  <circle cx="50" cy="50" r="50" fill="#060d18"/>
  <!-- Gold outer ring -->
  <circle cx="50" cy="50" r="46" fill="none" stroke="#FFD700" stroke-width="3"/>
  <!-- Football/Soccer ball -->
  <circle cx="50" cy="50" r="28" fill="white" stroke="#1a1a1a" stroke-width="1.5"/>
  <!-- Pentagon center -->
  <polygon points="50,30 62,40 58,54 42,54 38,40" fill="#1a1a1a"/>
  <!-- Side pentagons -->
  <polygon points="50,30 62,40 70,30 62,22 50,22" fill="#1a1a1a" opacity="0.4"/>
  <polygon points="62,40 70,52 78,44 74,32 70,30" fill="#1a1a1a" opacity="0.4"/>
  <polygon points="58,54 64,66 74,60 70,52 62,40" fill="#1a1a1a" opacity="0.4"/>
  <polygon points="42,54 36,66 26,60 30,52 38,40" fill="#1a1a1a" opacity="0.4"/>
  <polygon points="38,40 30,52 22,44 26,32 30,30" fill="#1a1a1a" opacity="0.4"/>
  <polygon points="50,30 38,22 30,30 38,40" fill="#1a1a1a" opacity="0.4"/>
  <!-- Trophy cup on top right -->
  <text x="68" y="28" font-size="20" text-anchor="middle">🏆</text>
</svg>
